<svg width="164" height="38" viewBox="0 0 164 38" fill="none" xmlns="http://www.w3.org/2000/svg">
<path d="M151.641 37.0469C149.672 37.0469 147.875 36.5781 146.25 35.6406C144.656 34.6719 143.375 33.3906 142.406 31.7969C141.469 30.2031 141 28.4375 141 26.5C141 24.5312 141.469 22.7656 142.406 21.2031C143.344 19.6094 144.609 18.3438 146.203 17.4062C147.828 16.4688 149.625 16 151.594 16C153.562 16 155.344 16.4688 156.938 17.4062C158.562 18.3438 159.844 19.6094 160.781 21.2031C161.75 22.7969 162.234 24.5625 162.234 26.5C162.234 28.4375 161.766 30.2031 160.828 31.7969C159.891 33.3906 158.625 34.6719 157.031 35.6406C155.438 36.5781 153.641 37.0469 151.641 37.0469ZM152.109 34.8438C153.109 34.8438 153.953 34.5156 154.641 33.8594C155.328 33.2031 155.859 32.3281 156.234 31.2344C156.609 30.1094 156.797 28.9062 156.797 27.625C156.797 25.9375 156.562 24.3906 156.094 22.9844C155.656 21.5469 155 20.3906 154.125 19.5156C153.281 18.6406 152.234 18.2031 150.984 18.2031C150.016 18.2031 149.172 18.5312 148.453 19.1875C147.766 19.8438 147.234 20.7188 146.859 21.8125C146.516 22.9062 146.344 24.1094 146.344 25.4219C146.344 27.1094 146.562 28.6719 147 30.1094C147.469 31.5156 148.141 32.6562 149.016 33.5312C149.891 34.4062 150.922 34.8438 152.109 34.8438Z" fill="#FEBE00"/>
<path d="M134.425 37C132.732 37 131.283 36.5714 130.079 35.7143C128.907 34.8312 128.321 33.4805 128.321 31.6623V22.2338H125.342C125.114 22.2338 125 21.8961 125 21.2208C125 21.013 125.016 20.8961 125.049 20.8701C125.049 20.1299 125 20 126.953 20.013C128 20.013 127.321 20 128.321 20.013C129.334 20.0261 129 17.5 129.5 16.3117C130.086 15.7403 131.983 16 131.983 16C132.146 16 132.309 16.013 132.472 16.039C132.634 16.039 132.781 16.0519 132.911 16.0779C133.204 16.1558 133.351 16.2338 133.351 16.3117V20.013L137 20C137.749 20 138.109 19.974 138.5 20C138.923 20 139.467 20 139.5 20C139.76 20 139.699 20.2857 139.699 20.5195C139.699 21.1688 139.536 21.7403 139.211 22.2338H133.351V26.9286V31.6234C133.351 32.6623 133.627 33.4545 134.181 34C134.734 34.5455 135.499 34.8182 136.476 34.8182C137.16 34.8182 137.794 34.7143 138.38 34.5065C138.966 34.2727 139.292 34.1558 139.357 34.1558C139.487 34.1299 139.634 34.2468 139.797 34.5065C139.959 34.7662 140.024 34.9351 139.992 35.013C139.862 35.2468 139.487 35.5195 138.869 35.8312C138.283 36.1429 137.583 36.4156 136.769 36.6494C135.988 36.8831 135.206 37 134.425 37Z" fill="#FEBE00"/>
<path d="M114.797 37.4688C112.828 37.4688 110.812 37.0312 108.75 36.1562C108.656 35.7812 108.547 35.25 108.422 34.5625C108.328 33.875 108.234 33.1875 108.141 32.5C108.078 31.7812 108.047 31.2344 108.047 30.8594C108.266 30.7031 108.484 30.625 108.703 30.625C109.391 30.625 109.766 30.75 109.828 31C110.078 32.3125 110.688 33.375 111.656 34.1875C112.656 34.9688 113.734 35.3594 114.891 35.3594C115.766 35.3594 116.484 35.1406 117.047 34.7031C117.609 34.2344 117.891 33.5469 117.891 32.6406C117.891 31.9844 117.641 31.3906 117.141 30.8594C116.641 30.2969 116.172 29.9062 115.734 29.6875L112.641 28.0469C111.203 27.2969 110.094 26.4688 109.312 25.5625C108.531 24.625 108.141 23.5 108.141 22.1875C108.141 20.9062 108.484 19.8281 109.172 18.9531C109.891 18.0781 110.812 17.4062 111.938 16.9375C113.094 16.4688 114.328 16.2344 115.641 16.2344C117.328 16.2344 119.141 16.5 121.078 17.0312C121.234 17.7188 121.344 18.5 121.406 19.375C121.5 20.25 121.562 21.2188 121.594 22.2812C121.594 22.5312 121.391 22.6562 120.984 22.6562C120.297 22.6562 119.922 22.5312 119.859 22.2812C119.641 21.1875 119.172 20.2656 118.453 19.5156C117.766 18.7344 116.828 18.3438 115.641 18.3438C114.734 18.3438 114.016 18.5469 113.484 18.9531C112.984 19.3594 112.734 19.9375 112.734 20.6875C112.734 21.5 113.047 22.1875 113.672 22.75C114.297 23.3125 115.141 23.8594 116.203 24.3906C117.016 24.7969 117.797 25.2344 118.547 25.7031C119.328 26.1719 120.062 26.6875 120.75 27.25C121.969 28.2188 122.578 29.5 122.578 31.0938C122.578 32.4062 122.219 33.5469 121.5 34.5156C120.812 35.4531 119.875 36.1875 118.688 36.7188C117.531 37.2188 116.234 37.4688 114.797 37.4688Z" fill="#FEBE00"/>
<path d="M90.8906 37.2812C89.4844 37.2812 88.3438 36.8594 87.4688 36.0156C86.5938 35.1719 85.9531 34.0938 85.5469 32.7812C85.1406 31.4688 84.9375 30.125 84.9375 28.75V23.5C84.9375 22 84.6875 21 84.1875 20.5C83.9062 20.1562 83.5469 19.9219 83.1094 19.7969C82.7031 19.6406 82.3281 19.5469 81.9844 19.5156C81.6719 19.4844 81.5156 19.4375 81.5156 19.375C81.5156 18.5 81.5938 18.0312 81.75 17.9688C82.5 17.9062 83.3438 17.7969 84.2812 17.6406C85.2188 17.4844 86.0938 17.3281 86.9062 17.1719C87.7188 16.9844 88.2812 16.8438 88.5938 16.75C88.8438 16.6875 89.0781 16.625 89.2969 16.5625C89.5156 16.5 89.6406 16.4688 89.6719 16.4688C89.8281 16.4688 89.9375 16.5781 90 16.7969C90.0938 17.0156 90.1406 17.1875 90.1406 17.3125C89.8594 19.4062 89.7188 20.7812 89.7188 21.4375V27.0625C89.7188 29.5 90.0625 31.25 90.75 32.3125C91.4375 33.375 92.5469 33.9062 94.0781 33.9062C95.0781 33.9062 95.9219 33.6094 96.6094 33.0156C97.2969 32.3906 97.6406 31.7969 97.6406 31.2344V23.5C97.6406 22 97.3906 21 96.8906 20.5C96.6094 20.1562 96.25 19.9219 95.8125 19.7969C95.4062 19.6719 95.0312 19.5938 94.6875 19.5625C94.375 19.5 94.2188 19.4375 94.2188 19.375C94.2188 18.4688 94.3125 18 94.5 17.9688C95.0938 17.9062 95.8438 17.7969 96.75 17.6406C97.6562 17.4844 98.5781 17.3125 99.5156 17.125C100.484 16.9062 101.312 16.7188 102 16.5625L102.375 16.4688C102.531 16.4688 102.656 16.5781 102.75 16.7969C102.844 17.0156 102.875 17.1875 102.844 17.3125C102.719 18.375 102.625 19.25 102.562 19.9375C102.5 20.5938 102.469 21.0625 102.469 21.3438V30.625C102.469 31.4062 102.5 32.0781 102.562 32.6406C102.625 33.2031 102.719 33.625 102.844 33.9062C102.969 34.1562 103.219 34.3281 103.594 34.4219C103.969 34.4844 104.328 34.5156 104.672 34.5156C105.047 34.5156 105.281 34.5312 105.375 34.5625C105.5 34.5938 105.562 34.7344 105.562 34.9844C105.562 35.1094 105.531 35.3281 105.469 35.6406C105.406 35.9219 105.312 36.0625 105.188 36.0625C104.5 36.0625 103.469 36.1875 102.094 36.4375C100.75 36.6875 99.3594 36.9688 97.9219 37.2812C97.7031 37.2812 97.5938 37.0312 97.5938 36.5312V34.4688C97.5938 34.3125 97.5469 34.2344 97.4531 34.2344C96.7344 35.0156 95.7812 35.7188 94.5938 36.3438C93.4062 36.9688 92.1719 37.2812 90.8906 37.2812Z" fill="#FEBE00"/>
<path d="M63.8438 37.375C61.7812 37.375 59.8438 36.9688 58.0312 36.1562C56.25 35.3438 54.6719 34.2188 53.2969 32.7812C51.9531 31.3438 50.8906 29.7031 50.1094 27.8594C49.3594 25.9844 48.9844 24 48.9844 21.9062C48.9844 19.6875 49.375 17.6094 50.1562 15.6719C50.9688 13.7344 52.0781 12.0156 53.4844 10.5156C54.8906 9.01562 56.5156 7.84375 58.3594 7C60.2344 6.15625 62.25 5.73438 64.4062 5.73438C67.2188 5.73438 70.8438 6.3125 75.2812 7.46875C75.375 7.5 75.5156 8.53125 75.7031 10.5625C75.8281 12.125 75.9219 13.2188 75.9844 13.8438C76.0469 14.4688 75.7188 14.7812 75 14.7812C74.5625 14.7812 74.2188 14.6875 73.9688 14.5C73.875 14.0625 73.7344 13.625 73.5469 13.1875C73.3906 12.75 73.0938 12.1875 72.6562 11.5C71.875 10.375 70.7812 9.51562 69.375 8.92188C68 8.32812 66.4062 8.03125 64.5938 8.03125C62.5625 8.03125 60.8125 8.59375 59.3438 9.71875C57.875 10.8125 56.75 12.3438 55.9688 14.3125C55.2188 16.25 54.8438 18.5 54.8438 21.0625C54.8438 23.2812 55.25 25.4375 56.0625 27.5312C56.5938 28.9062 57.3281 30.1719 58.2656 31.3281C59.2344 32.4531 60.3594 33.3594 61.6406 34.0469C62.9531 34.7031 64.375 35.0312 65.9062 35.0312C67.9062 35.0312 69.4062 34.7344 70.4062 34.1406C70.7188 33.9219 70.875 33.5625 70.875 33.0625L70.8281 29.6875V29.3594C70.8281 27.4531 70.7188 26.1875 70.5 25.5625C70.4375 25.2812 70.2031 25.0625 69.7969 24.9062C69.3906 24.7188 68.9375 24.5938 68.4375 24.5312C67.9375 24.4375 67.5 24.3906 67.125 24.3906C67 24.3906 66.9375 24.1562 66.9375 23.6875C66.9375 23.25 67 22.9688 67.125 22.8438C67.5 22.8438 68.4531 22.8906 69.9844 22.9844C71.5469 23.0781 72.7812 23.125 73.6875 23.125L79.3594 22.8438C79.4531 23.125 79.5 23.3906 79.5 23.6406C79.5 24.1719 79.4375 24.4375 79.3125 24.4375C79.125 24.4375 78.7031 24.5312 78.0469 24.7188C77.4219 24.9062 76.9688 25.0625 76.6875 25.1875C76.2812 25.4062 76.0781 26.5469 76.0781 28.6094L76.125 30.5781V31.6562C76.125 32.1562 76.2031 32.6406 76.3594 33.1094C76.5156 33.5781 76.5938 33.8125 76.5938 33.8125C76.5938 34.25 76.25 34.625 75.5625 34.9375C74.3438 35.4688 73.4219 35.8594 72.7969 36.1094C72.2031 36.3281 71.0625 36.5938 69.375 36.9062C67.7188 37.2188 65.875 37.375 63.8438 37.375Z" fill="#FEBE00"/>
<path d="M38.5312 37.2812C36.7188 37.2812 35.0469 36.8281 33.5156 35.9219C32.0156 34.9844 30.8125 33.7344 29.9062 32.1719C29 30.5781 28.5469 28.8281 28.5469 26.9219C28.5469 24.7969 28.9688 22.9375 29.8125 21.3438C30.6562 19.75 31.7969 18.5156 33.2344 17.6406C34.7031 16.7344 36.375 16.2812 38.25 16.2812C39.7812 16.2812 41.0938 16.5625 42.1875 17.125C43.2812 17.6875 44.1719 18.4219 44.8594 19.3281C45.5781 20.2031 46.0938 21.1406 46.4062 22.1406C46.75 23.1094 46.9219 24.0156 46.9219 24.8594C46.9219 25.5469 46.7969 25.9844 46.5469 26.1719C46.3281 26.3281 45.8594 26.4062 45.1406 26.4062H33.9375C33.7188 26.4062 33.6094 26.5 33.6094 26.6875C33.6094 27.8438 33.8125 28.9375 34.2188 29.9688C34.625 31.0312 35.3125 31.9531 36.2812 32.7344C37.2812 33.5156 38.4688 33.9062 39.8438 33.9062C40.6562 33.9062 41.3281 33.8438 41.8594 33.7188C42.3906 33.5938 42.9062 33.4531 43.4062 33.2969C43.6562 33.2031 43.9688 33.0469 44.3438 32.8281C44.7188 32.5781 45.0625 32.3594 45.375 32.1719C45.6875 31.9531 45.8438 31.8438 45.8438 31.8438C45.9062 31.875 45.9844 31.9688 46.0781 32.125C46.1719 32.2812 46.2188 32.4375 46.2188 32.5938C46.2188 32.9375 46.125 33.2344 45.9375 33.4844C45.625 34.0469 45.0938 34.625 44.3438 35.2188C43.625 35.7812 42.7656 36.2656 41.7656 36.6719C40.7656 37.0781 39.6875 37.2812 38.5312 37.2812ZM33.9375 24.1562H41.5312C41.8125 24.1562 41.9531 23.9219 41.9531 23.4531C41.9531 22.7031 41.7812 21.9531 41.4375 21.2031C41.125 20.4219 40.6562 19.7656 40.0312 19.2344C39.4375 18.7031 38.7344 18.4375 37.9219 18.4375C36.9531 18.4375 36.1406 18.7656 35.4844 19.4219C34.8594 20.0781 34.3906 20.8281 34.0781 21.6719C33.7969 22.5156 33.6562 23.2344 33.6562 23.8281C33.6562 24.0469 33.75 24.1562 33.9375 24.1562Z" fill="#FEBE00"/>
<path d="M1.40625 37.1406C1.3125 37.0469 1.26562 36.7969 1.26562 36.3906C1.26562 35.8594 1.3125 35.5938 1.40625 35.5938C1.6875 35.5938 2.04688 35.5469 2.48438 35.4531C2.95312 35.3594 3.39062 35.2344 3.79688 35.0781C4.23438 34.9219 4.48438 34.75 4.54688 34.5625C4.76562 33.9375 4.875 32.5156 4.875 30.2969V12.5781C4.875 10.7344 4.75 9.40625 4.5 8.59375C4.4375 8.40625 4.20312 8.23438 3.79688 8.07812C3.42188 7.92188 3 7.79688 2.53125 7.70312C2.09375 7.57812 1.75 7.51562 1.5 7.51562C1.375 7.51562 1.3125 7.28125 1.3125 6.8125C1.3125 6.3125 1.34375 6.03125 1.40625 5.96875L4.03125 6.10938C4.8125 6.14062 5.5 6.1875 6.09375 6.25C6.71875 6.28125 7.23438 6.28125 7.64062 6.25L13.6406 5.96875C13.7344 6.25 13.7812 6.5 13.7812 6.71875C13.7812 7.25 13.7188 7.51562 13.5938 7.51562C13.4062 7.51562 13.0781 7.57812 12.6094 7.70312C12.1406 7.82812 11.6875 7.96875 11.25 8.125C10.8438 8.28125 10.6094 8.4375 10.5469 8.59375C10.4219 9.09375 10.3281 9.6875 10.2656 10.375C10.2031 11.0312 10.1719 11.8125 10.1719 12.7188V30.3438C10.1719 31.8438 10.3125 33.0938 10.5938 34.0938C10.7188 34.5 11.7812 34.7031 13.7812 34.7031H15.5156C17.9844 34.7031 19.8438 34.375 21.0938 33.7188C21.5938 33.4688 22.1562 32.9219 22.7812 32.0781C23.4062 31.2344 23.8906 30.2812 24.2344 29.2188C24.2969 29.0312 24.5156 28.9375 24.8906 28.9375C25.5781 28.9375 26.0156 29.0312 26.2031 29.2188L24.7031 33.3906C24.5156 33.8906 24.3125 34.5312 24.0938 35.3125C23.875 36.0625 23.7344 36.6719 23.6719 37.1406C22.4219 37.1406 19.8438 37.0938 15.9375 37C13.9688 36.9375 12.2969 36.9062 10.9219 36.9062C9.54688 36.9062 8.45312 36.9219 7.64062 36.9531L1.40625 37.1406Z" fill="#FEBE00"/>
<path d="M127.5 14.5C127.5 12.9241 127.19 11.3637 126.587 9.9078C125.983 8.45189 125.1 7.12902 123.985 6.01472C122.871 4.90042 121.548 4.0165 120.092 3.41345C118.636 2.81039 117.076 2.5 115.5 2.5C113.924 2.5 112.364 2.81039 110.908 3.41345C109.452 4.0165 108.129 4.90042 107.015 6.01472C105.9 7.12902 105.017 8.45189 104.413 9.9078C103.81 11.3637 103.5 12.9241 103.5 14.5L105.816 14.5C105.816 13.2282 106.066 11.9689 106.553 10.7939C107.039 9.61898 107.753 8.55139 108.652 7.65211C109.551 6.75283 110.619 6.03948 111.794 5.5528C112.969 5.06611 114.228 4.81562 115.5 4.81562C116.772 4.81562 118.031 5.06611 119.206 5.5528C120.381 6.03948 121.449 6.75283 122.348 7.65211C123.247 8.55138 123.961 9.61898 124.447 10.7939C124.934 11.9689 125.184 13.2282 125.184 14.5H127.5Z" fill="#FEBE00"/>
<path d="M112 1H119L118 3H113L112 1Z" fill="#FEBE00"/>
<path d="M100 12H131V14.5H100V12Z" fill="#FEBE00"/>
</svg>
